<svg id="Layer_1" data-name="Layer 1" xmlns="http://www.w3.org/2000/svg" viewBox="0 0 128 128"><defs><style>.cls-1{fill:#0c91ae;}.cls-2{fill:#16778f;}.cls-3{fill:#fff;}.cls-10,.cls-4,.cls-5,.cls-6,.cls-7{fill:none;stroke-miterlimit:10;}.cls-4{stroke:#0b91ae;}.cls-10,.cls-4,.cls-6{stroke-width:3px;}.cls-10,.cls-5,.cls-7{stroke:#16778f;}.cls-5{stroke-width:8px;}.cls-6{stroke:#f36e51;}.cls-7{stroke-width:4px;}.cls-8{fill:#f36e51;}.cls-8,.cls-9{opacity:0.2;}.cls-9{fill:#0b91ae;}</style></defs><title>Artboard 7</title><rect class="cls-1" width="128" height="128"/><path class="cls-2" d="M114,14V114H14V14H114m4-4H10V118H118V10Z"/><rect class="cls-3" x="68" y="38" width="40" height="60"/><line class="cls-4" x1="80" y1="46" x2="102" y2="46"/><line class="cls-5" x1="20" y1="42" x2="58.83" y2="42"/><line class="cls-6" x1="86.5" y1="54" x2="100.31" y2="54"/><line class="cls-7" x1="10" y1="30" x2="118" y2="30"/><rect class="cls-2" x="18" y="18" width="60" height="6"/><circle class="cls-2" cx="107" cy="20.83" r="3"/><circle class="cls-2" cx="96.91" cy="20.83" r="3"/><circle class="cls-2" cx="86.91" cy="20.83" r="3"/><circle class="cls-8" cx="82" cy="54" r="2"/><line class="cls-6" x1="86.5" y1="62.07" x2="96.31" y2="62.07"/><circle class="cls-8" cx="82" cy="62.07" r="2"/><line class="cls-6" x1="86.5" y1="70.07" x2="100.31" y2="70.07"/><circle class="cls-8" cx="82" cy="70.07" r="2"/><circle class="cls-9" cx="75.5" cy="46" r="2"/><line class="cls-6" x1="80" y1="78.07" x2="95" y2="78.07"/><circle class="cls-8" cx="75.5" cy="78.07" r="2"/><line class="cls-6" x1="80" y1="86.07" x2="99" y2="86.07"/><line class="cls-10" x1="20" y1="54" x2="55" y2="54"/><line class="cls-10" x1="20" y1="62.07" x2="51" y2="62.07"/><line class="cls-10" x1="20" y1="70.07" x2="55" y2="70.07"/><line class="cls-10" x1="20" y1="78.07" x2="56.19" y2="78.07"/><line class="cls-10" x1="20" y1="86.07" x2="60.19" y2="86.07"/><line class="cls-10" x1="20" y1="94.07" x2="56.19" y2="94.07"/><line class="cls-10" x1="20" y1="102.07" x2="60.19" y2="102.07"/><circle class="cls-8" cx="75.5" cy="86.07" r="2"/></svg>